<?xml version="1.0" standalone="no"?>
<!DOCTYPE svg PUBLIC "-//W3C//DTD SVG 1.1//EN" "http://www.w3.org/Graphics/SVG/1.1/DTD/svg11.dtd" >
<svg xmlns="http://www.w3.org/2000/svg">
<metadata></metadata>
<defs>
<font id="mouse_decoregular" horiz-adv-x="1296" >
<font-face units-per-em="2048" ascent="1638" descent="-410" />
<missing-glyph horiz-adv-x="1000" />
<glyph horiz-adv-x="0" />
<glyph unicode="&#xd;" horiz-adv-x="400" />
<glyph unicode=" "  horiz-adv-x="1000" />
<glyph unicode="&#x09;" horiz-adv-x="1000" />
<glyph unicode="&#xa0;" horiz-adv-x="1000" />
<glyph unicode="!" horiz-adv-x="592" d="M200 0v224h192v-224h-192zM200 448v1024h192v-1024h-192z" />
<glyph unicode="&#x22;" horiz-adv-x="1437" d="M200 1038v37l147 625h258v-37l-258 -625h-147zM832 1038v37l147 625h258v-37l-258 -625h-147z" />
<glyph unicode="#" horiz-adv-x="1488" d="M200 448v128h251l37 320h-224v128h240l59 480h160l-59 -480h254l61 480h160l-57 -480h206v-128h-226l-36 -320h198v-128h-224l-64 -480h-160l64 480h-256l-64 -480h-160l64 480h-224zM611 576h248l40 320h-251z" />
<glyph unicode="$" horiz-adv-x="1254" d="M200 249l133 135q144 -128 224 -134v390q-324 58 -332 356t332 380v128h160v-127q151 -41 288 -188l-128 -133q-68 68 -160 100v-356q320 -63 337 -362q-23 -312 -337 -406v-190l-160 -2v192q-172 27 -357 217zM430.5 1022.5q-28.5 -115.5 126.5 -190.5v332 q-98 -26 -126.5 -141.5zM717 250q122 34 145.5 107t-0.5 134.5t-145 116.5v-358z" />
<glyph unicode="%" horiz-adv-x="400" />
<glyph unicode="&#x26;" horiz-adv-x="1438" d="M200 335q0 -72 27 -135t72.5 -109.5t107.5 -72.5t134 -26q173 0 328 161l102 -145h267l-225 321q10 14 17 25t15 23.5t17 33.5t24.5 57t26.5 62t20 48t16 43.5t15 51.5h-209q-34 -97 -72 -155l-143 201q28 24 45 41t48 51q64 73 90 131t26 126q0 121 -82.5 196t-220.5 75 q-64 0 -119.5 -22t-96.5 -59t-65 -87.5t-24 -108.5q0 -150 126 -317q-74 -60 -124.5 -111.5t-82.5 -99.5t-46 -97t-14 -102zM417 345q0 59 35 113t128 130l178 -267q-104 -128 -195 -128q-62 0 -104 44t-42 108zM547 1058q0 44 26.5 70.5t70.5 26.5q42 0 68 -25.5t26 -65.5 q0 -74 -54 -128l-46 -50l-8 -8q-48 70 -65.5 108t-17.5 72z" />
<glyph unicode="'" horiz-adv-x="646" d="M185 1038v37l147 625h258v-37l-258 -625h-147z" />
<glyph unicode="(" horiz-adv-x="944" d="M200 736q0 476 416 768l128 -160q-320 -212 -336 -551v-114q16 -339 336 -551l-128 -160q-416 292 -416 768z" />
<glyph unicode=")" horiz-adv-x="944" d="M200 128q320 212 336 551v114q-16 339 -336 551l128 160q416 -292 416 -768t-416 -768z" />
<glyph unicode="*" horiz-adv-x="1038" d="M200 997l182 123v64l-182 130l55 72l203 -118l13 12v247h109v-247l12 -12l198 118l48 -72l-168 -130v-64l168 -120l-48 -85l-198 124l-12 -13v-264h-109v264l-13 13l-203 -124z" />
<glyph unicode="+" horiz-adv-x="1328" d="M200 502v224h352v352h224v-352h352v-224h-352v-352h-224v352h-352z" />
<glyph unicode="," horiz-adv-x="752" d="M200 -319l128 544h224v-32l-224 -544h-128v32z" />
<glyph unicode="-" horiz-adv-x="848" d="M200 506v224h448v-224h-448z" />
<glyph unicode="." horiz-adv-x="592" d="M200 1v224h192v-224h-192z" />
<glyph unicode="/" horiz-adv-x="1168" d="M200 -31l544 1536h224l-544 -1536h-224z" />
<glyph unicode="0" horiz-adv-x="1311" d="M200 738q0 171 37 314.5t107 241.5q62 88 144 137t168 49q85 0 167.5 -49t143.5 -137q70 -98 107 -241.5t37 -314.5q0 -168 -37.5 -311t-106.5 -241q-60 -88 -143 -137t-168 -49q-86 0 -169 49t-143 137q-69 98 -106.5 241t-37.5 311zM404 740q0 -115 23.5 -223 t64.5 -182q65 -113 163 -113q99 0 164 113q40 73 64 181.5t24 223.5q0 117 -24 225t-64 181q-66 112 -164 112t-163 -112q-40 -73 -64 -181t-24 -225z" />
<glyph unicode="1" horiz-adv-x="786" d="M200 1286l32 193h354v-1479h-225v1286h-161z" />
<glyph unicode="2" horiz-adv-x="1215" d="M200 0q553 788 573 1030t-165 218t-377 -182v251q6 28 168 111q101 51 221 51q72 0 150 -18q209 -50 227 -361t-389 -880h407v-220h-815z" />
<glyph unicode="3" horiz-adv-x="1207" d="M200 123l27 178q181 -119 307 -93q102 0 174 69.5t72 174.5q0 102 -73.5 170.5t-174.5 68.5l-148 16v184l150 20q80 0 138 56t58 140q0 82 -59 136.5t-140 54.5q-95 0 -229 -95l-20 206q81 73 249 83q371 -34 412 -394q10 -142 -126 -299q190 -153 185 -343 q-17 -404 -471 -456q-204 7 -331 123z" />
<glyph unicode="4" horiz-adv-x="1361" d="M200 256l641 1216h192v-992h128v-224h-128v-256h-224v256h-609zM521 480h288l-1 535z" />
<glyph unicode="5" horiz-adv-x="1207" d="M200 72v250q284 -152 442 -96.5t151 325.5q-38 272 -280 272h-219v657h594v-188h-375v-250q477 -40 494 -491q-11 -443 -294 -539q-108 -36 -209 -36q-162 0 -304 96z" />
<glyph unicode="6" horiz-adv-x="1278" d="M203 450q-3 390 520 1040l176 -124q-227 -252 -356 -533q495 5 535 -410q-31 -406 -448 -423q-370 17 -426 423q-1 14 -1 27zM442 492q-18 -127 30 -203t155 -88q92 -10 158.5 41.5t79.5 143.5q13 91 -39 156t-143 75q-111 13 -223 -39q-8 -29 -11.5 -45t-6.5 -41z" />
<glyph unicode="7" horiz-adv-x="1232" d="M200 1280v192h832v-32l-448 -1440h-256l384 1280h-512z" />
<glyph unicode="8" horiz-adv-x="1357" d="M206 456q-6 190 184 343q-137 157 -126 299q42 360 412 383q375 -23 416 -383q12 -142 -125 -299q190 -153 184 -343q-17 -404 -475 -456q-453 52 -470 456zM428 452q0 -105 72 -174.5t173 -69.5q112 0 184 69.5t72 174.5q0 102 -73 170.5t-180 68.5q-101 0 -174.5 -68.5 t-73.5 -170.5zM477 1107q0 -84 58 -140t139 -56q90 0 147.5 55.5t57.5 139.5q0 83 -58.5 137.5t-144.5 54.5q-81 0 -140 -54.5t-59 -136.5z" />
<glyph unicode="9" horiz-adv-x="1278" d="M200 1067q31 406 448 423q370 -17 426 -423q1 -13 1 -27q3 -390 -520 -1040l-175 124q227 252 355 533q-495 -4 -535 410zM413 1104q-12 -90 39.5 -155t143.5 -76q110 -12 222 40q8 28 11.5 44t6.5 41q18 127 -30 203.5t-155 88.5q-91 10 -158 -42t-80 -144z" />
<glyph unicode=":" horiz-adv-x="592" d="M200 1v224h192v-224h-192zM200 481v224h192v-224h-192z" />
<glyph unicode=";" horiz-adv-x="752" d="M200 -351l128 576h224v-32l-224 -544h-128zM360 481v224h192v-224h-192z" />
<glyph unicode="&#x3c;" d="M200 393v238l896 393v-224l-608 -288l608 -288v-224z" />
<glyph unicode="=" d="M200 192v224h896v-224h-896zM200 576v224h896v-224h-896z" />
<glyph unicode="&#x3e;" d="M200 0v224l608 288l-608 288v224l896 -393v-238z" />
<glyph unicode="?" horiz-adv-x="1168" d="M200 1153q30 252 207 338q96 46 197 46q85 0 172 -32q192 -72 192 -335t-148.5 -367t-107.5 -386h-256v160q0 213 128 330.5t160 242.5q-20 131 -147.5 131t-236.5 -192zM456 1v224h256v-224h-256z" />
<glyph unicode="@" horiz-adv-x="1827" d="M200 743q0 -161 56 -297t155.5 -235.5t237 -155t300.5 -55.5q228 0 387 105q27 19 50.5 36.5t46.5 40.5t48.5 54.5t61.5 75.5h-152q-30 -31 -52 -50.5t-42.5 -35t-40.5 -27.5t-43 -25q-114 -56 -252 -56q-131 0 -243 48t-194.5 133t-130 199.5t-47.5 249.5 q0 133 46.5 249.5t129 201.5t194.5 134t241 49q123 0 225.5 -40.5t176.5 -111t116 -168.5t42 -214q0 -78 -24 -152.5t-73 -130.5q-42 -53 -88.5 -85.5t-76.5 -32.5q-34 0 -29 37v11q0 6 2 18t6 30l95 567h-150l-23 -114q-72 140 -237 140q-82 0 -153 -35t-124 -96 t-82.5 -145t-29.5 -180q0 -78 22 -143.5t62.5 -112.5t97.5 -73t125 -26q126 0 209 104q0 -113 108 -113q53 0 125 31q164 65 256 205.5t92 328.5q0 135 -50.5 248.5t-141.5 196t-215.5 129.5t-270.5 47q-163 0 -299.5 -58t-237 -159t-156.5 -239.5t-56 -302.5zM667 702 q7 67 31 124t61 96t82.5 59.5t95.5 15.5q82 -9 123 -75t30 -173q-15 -145 -86.5 -231t-170.5 -75q-86 9 -131.5 80.5t-34.5 178.5z" />
<glyph unicode="A" horiz-adv-x="1694" d="M200 0l647 1480l647 -1480h-228l-132 291h-574l-132 -291h-228zM638 479h418l-209 486z" />
<glyph unicode="B" horiz-adv-x="1274" d="M200 0v1472h352q264 0 339 -225q28 -84 28 -154q0 -118 -79 -197q234 -93 234 -398q0 -35 -3 -72q-30 -367 -519 -426h-352zM424 192q438 0 438 304t-438 304v-608zM424 873q270 30 270 222q0 185 -251 185h-19v-407z" />
<glyph unicode="C" horiz-adv-x="1238" d="M200 739q0 103 27.5 198t75.5 177t117.5 150t153 116t180 74.5t200.5 26.5q20 0 39 -1t45 -5v-210q-49 -3 -84 -3q-72 0 -139.5 -19t-125.5 -53t-106 -81t-81.5 -106t-52.5 -125.5t-19 -138.5v-5q0 -104 40 -198q41 -96 112 -166q72 -70 168 -112q93 -41 199 -41h5 q19 0 37.5 1.5t46.5 8.5v-225h-30.5t-22.5 -1q-8 0 -15.5 -0.5t-15.5 -0.5q-156 2 -293.5 59t-240 157.5t-161.5 235t-59 287.5z" />
<glyph unicode="D" horiz-adv-x="1368" d="M200 0v1472h288q637 -96 680 -736q-43 -640 -680 -736h-288zM424 224h64q449 88 468 512q-19 424 -468 512h-64v-1024z" />
<glyph unicode="E" horiz-adv-x="1232" d="M200 0v1472h832v-192h-608v-576h448v-224h-448v-256h608v-224h-832z" />
<glyph unicode="F" horiz-adv-x="1200" d="M200 0v1472h800v-192h-576v-576h448v-224h-448v-480h-224z" />
<glyph unicode="G" horiz-adv-x="1448" d="M200 756q0 90 19.5 174.5t56.5 158.5q22 42 51 83.5t61.5 78.5t67.5 68.5t70 55.5q76 46 165 72.5t189 31.5q12 1 24 1h23q171 0 321 -65l-48 -191q-61 25 -120.5 35t-126.5 10q-77 0 -156 -16q-109 -24 -193 -98.5t-134 -193.5q-21 -54 -32.5 -109t-11.5 -111 q0 -66 16.5 -133.5t51.5 -136.5q63 -124 168 -187.5t248 -78.5l136 2v291h-187v199h384v-609q-42 -42 -117 -65t-179 -23q-107 0 -198 18t-157 49q-134 68 -249 211q-55 70 -90 164.5t-48 216.5q-3 25 -4 49.5t-1 47.5z" />
<glyph unicode="H" horiz-adv-x="1366" d="M200 0v1480h226v-772h514v772h226v-1480h-226v483h-514v-483h-226z" />
<glyph unicode="I" horiz-adv-x="624" d="M200 0v1480h224v-1480h-224z" />
<glyph unicode="J" horiz-adv-x="1059" d="M200 86v197l187 -63q33 -5 62 -5q185 0 185 194v1071h225v-1039q-3 -436 -361 -441q-197 0 -298 86z" />
<glyph unicode="K" d="M200 0v1472h224v-768l384 768h256l-413 -884l445 -588h-288l-384 500v-500h-224z" />
<glyph unicode="L" horiz-adv-x="1136" d="M200 0v1472h224v-1248h512v-224h-736z" />
<glyph unicode="M" horiz-adv-x="1968" d="M200 0l280 1478l504 -992l504 992l280 -1478h-224l-147 840l-413 -840l-413 840l-147 -840h-224z" />
<glyph unicode="N" horiz-adv-x="1392" d="M200 0v1480l768 -840v840h224v-1480l-768 864v-864h-224z" />
<glyph unicode="O" horiz-adv-x="1913" d="M200 740q0 153 59.5 289.5t162.5 236.5t240 158t295 58q157 0 294 -58t240 -158t162.5 -236.5t59.5 -289.5q0 -154 -59.5 -288.5t-162.5 -234.5t-240 -158.5t-294 -58.5q-158 0 -295 58.5t-240 158.5t-162.5 234.5t-59.5 288.5zM426 740q0 -110 41.5 -206.5t113.5 -168 t169 -112.5t207 -41q109 0 206 41t168.5 112.5t113 168t41.5 206.5t-41.5 206.5t-113 168t-168.5 112t-206 40.5q-110 0 -207 -40.5t-169 -112t-113.5 -168t-41.5 -206.5z" />
<glyph unicode="P" horiz-adv-x="1140" d="M200 0v1480h322q418 -104 418 -480q0 -270 -176 -414q-168 -137 -325 -136h-15v-450h-224zM424 679h33q258 46 258 307q0 269 -291 301v-608z" />
<glyph unicode="Q" horiz-adv-x="1952" d="M200 711v53q0 319 280 555q213 161 436 161h72q350 0 608 -340q114 -199 114 -382v-35q0 -257 -232 -513q68 -51 128.5 -72.5t145.5 -41.5l-148 -139q-115 15 -181.5 50t-116.5 75q-186 -81 -354 -81q-409 0 -657 375q-95 173 -95 335zM423 716q0 -271 270 -442 q119 -63 240 -63h30q155 10 205 36q-30 59 -107 94.5t-185 41.5q87 92 143 156q117 -22 181.5 -61.5t134.5 -100.5l63 86q75 132 75 271q0 291 -270 459q-120 62 -234 62h-41q-290 0 -458 -298q-47 -113 -47 -206v-35z" />
<glyph unicode="R" horiz-adv-x="1194" d="M200 0v1480h322q418 -104 418 -480q0 -309 -282 -495l336 -505h-279l-291 450v-450h-224zM424 679h33q258 46 258 307q0 269 -291 301v-608z" />
<glyph unicode="S" horiz-adv-x="1098" d="M200 1052q0 362 590 434l43 -206q-351 -67 -396 -184q-7 -18 -7 -36q0 -106 215 -246q253 -164 253 -386q0 -363 -590 -435l-43 207q349 68 395 184q7 18 7 36q0 104 -214 244q-253 164 -253 388z" />
<glyph unicode="T" horiz-adv-x="1360" d="M200 1288v192h960v-192h-368v-1280h-224v1280h-368z" />
<glyph unicode="U" horiz-adv-x="1360" d="M200 601v879h225v-879q0 -371 255 -371t255 371v879h225v-879q0 -581 -480 -601q-480 20 -480 601z" />
<glyph unicode="V" horiz-adv-x="1590" d="M200 1479h250l345 -900l345 900h250l-595 -1479z" />
<glyph unicode="W" horiz-adv-x="1880" d="M200 1480h216l263 -824l261 824l261 -824l263 824h216l-479 -1480l-261 838l-261 -838z" />
<glyph unicode="X" horiz-adv-x="1516" d="M200 0l414 768l-414 712h256l302 -488l302 488h256l-414 -712l414 -768h-256l-302 512l-302 -512h-256z" />
<glyph unicode="Y" horiz-adv-x="1429" d="M200 1479h237l278 -716l277 716h237l-386 -979v-500h-257v500z" />
<glyph unicode="Z" horiz-adv-x="1365" d="M200 0l579 1254h-547l32 225h869l-579 -1254h611l-32 -225h-933z" />
<glyph unicode="[" horiz-adv-x="784" d="M200 0v1480h384v-180h-160v-1120h160v-180h-384z" />
<glyph unicode="\" horiz-adv-x="1200" d="M200 1505h192l608 -1536h-192z" />
<glyph unicode="]" horiz-adv-x="784" d="M200 0v180h160v1120h-160v180h384v-1480h-384z" />
<glyph unicode="^" horiz-adv-x="1150" d="M200 1052l267 512h216l267 -512h-191l-184 321l-184 -321h-191z" />
<glyph unicode="_" horiz-adv-x="1645" d="M200 -96h1245v-160h-1245v160z" />
<glyph unicode="`" horiz-adv-x="752" d="M200 1588v32h224l128 -544v-32h-128z" />
<glyph unicode="a" horiz-adv-x="1694" d="M200 0l647 1480l647 -1480h-228l-132 291h-574l-132 -291h-228zM638 479h418l-209 486z" />
<glyph unicode="b" horiz-adv-x="1274" d="M200 0v1472h352q264 0 339 -225q28 -84 28 -154q0 -118 -79 -197q234 -93 234 -398q0 -35 -3 -72q-30 -367 -519 -426h-352zM424 192q438 0 438 304t-438 304v-608zM424 873q270 30 270 222q0 185 -251 185h-19v-407z" />
<glyph unicode="c" horiz-adv-x="1238" d="M200 739q0 103 27.5 198t75.5 177t117.5 150t153 116t180 74.5t200.5 26.5q20 0 39 -1t45 -5v-210q-49 -3 -84 -3q-72 0 -139.5 -19t-125.5 -53t-106 -81t-81.5 -106t-52.5 -125.5t-19 -138.5v-5q0 -104 40 -198q41 -96 112 -166q72 -70 168 -112q93 -41 199 -41h5 q19 0 37.5 1.5t46.5 8.5v-225h-30.5t-22.5 -1q-8 0 -15.5 -0.5t-15.5 -0.5q-156 2 -293.5 59t-240 157.5t-161.5 235t-59 287.5z" />
<glyph unicode="d" horiz-adv-x="1368" d="M200 0v1472h288q637 -96 680 -736q-43 -640 -680 -736h-288zM424 224h64q449 88 468 512q-19 424 -468 512h-64v-1024z" />
<glyph unicode="e" horiz-adv-x="1232" d="M200 0v1472h832v-192h-608v-576h448v-224h-448v-256h608v-224h-832z" />
<glyph unicode="f" horiz-adv-x="1200" d="M200 0v1472h800v-192h-576v-576h448v-224h-448v-480h-224z" />
<glyph unicode="g" horiz-adv-x="1448" d="M200 756q0 90 19.5 174.5t56.5 158.5q22 42 51 83.5t61.5 78.5t67.5 68.5t70 55.5q76 46 165 72.5t189 31.5q12 1 24 1h23q171 0 321 -65l-48 -191q-61 25 -120.5 35t-126.5 10q-77 0 -156 -16q-109 -24 -193 -98.5t-134 -193.5q-21 -54 -32.5 -109t-11.5 -111 q0 -66 16.5 -133.5t51.5 -136.5q63 -124 168 -187.5t248 -78.5l136 2v291h-187v199h384v-609q-42 -42 -117 -65t-179 -23q-107 0 -198 18t-157 49q-134 68 -249 211q-55 70 -90 164.5t-48 216.5q-3 25 -4 49.5t-1 47.5z" />
<glyph unicode="h" horiz-adv-x="1366" d="M200 0v1480h226v-772h514v772h226v-1480h-226v483h-514v-483h-226z" />
<glyph unicode="i" horiz-adv-x="624" d="M200 0v1480h224v-1480h-224z" />
<glyph unicode="j" horiz-adv-x="1059" d="M200 86v197l187 -63q33 -5 62 -5q185 0 185 194v1071h225v-1039q-3 -436 -361 -441q-197 0 -298 86z" />
<glyph unicode="k" d="M200 0v1472h224v-768l384 768h256l-413 -884l445 -588h-288l-384 500v-500h-224z" />
<glyph unicode="l" horiz-adv-x="1136" d="M200 0v1472h224v-1248h512v-224h-736z" />
<glyph unicode="m" horiz-adv-x="1968" d="M200 0l280 1478l504 -992l504 992l280 -1478h-224l-147 840l-413 -840l-413 840l-147 -840h-224z" />
<glyph unicode="n" horiz-adv-x="1392" d="M200 0v1480l768 -840v840h224v-1480l-768 864v-864h-224z" />
<glyph unicode="o" horiz-adv-x="1913" d="M200 740q0 153 59.5 289.5t162.5 236.5t240 158t295 58q157 0 294 -58t240 -158t162.5 -236.5t59.5 -289.5q0 -154 -59.5 -288.5t-162.5 -234.5t-240 -158.5t-294 -58.5q-158 0 -295 58.5t-240 158.5t-162.5 234.5t-59.5 288.5zM426 740q0 -110 41.5 -206.5t113.5 -168 t169 -112.5t207 -41q109 0 206 41t168.5 112.5t113 168t41.5 206.5t-41.5 206.5t-113 168t-168.5 112t-206 40.5q-110 0 -207 -40.5t-169 -112t-113.5 -168t-41.5 -206.5z" />
<glyph unicode="p" horiz-adv-x="1140" d="M200 0v1480h322q418 -104 418 -480q0 -270 -176 -414q-169 -136 -325 -136h-15v-450h-224zM424 679h33q258 46 258 307q0 269 -291 301v-608z" />
<glyph unicode="q" horiz-adv-x="1952" d="M200 711v53q0 319 280 555q213 161 436 161h72q350 0 608 -340q114 -199 114 -382v-35q0 -257 -209 -502q80 -86 251 -125l-153 -175q-145 0 -316 161q-163 -81 -331 -81q-409 0 -657 375q-95 173 -95 335zM423 716q0 -271 270 -442q119 -63 240 -63h30q155 10 155 29 q-137 113 -242 143q157 162 172 162q135 -34 287 -168l63 86q75 132 75 271q0 291 -270 459q-120 62 -234 62h-41q-290 0 -458 -298q-47 -113 -47 -206v-35z" />
<glyph unicode="r" horiz-adv-x="1194" d="M200 0v1480h322q418 -104 418 -480q0 -309 -282 -495l336 -505h-279l-291 450v-450h-224zM424 679h33q258 46 258 307q0 269 -291 301v-608z" />
<glyph unicode="s" horiz-adv-x="1098" d="M200 1052q0 362 590 434l43 -206q-351 -67 -396 -184q-7 -18 -7 -36q0 -106 215 -246q253 -164 253 -386q0 -363 -590 -435l-43 207q349 68 395 184q7 18 7 36q0 104 -214 244q-253 164 -253 388z" />
<glyph unicode="t" horiz-adv-x="1360" d="M200 1288v192h960v-192h-368v-1280h-224v1280h-368z" />
<glyph unicode="u" horiz-adv-x="1360" d="M200 601v879h225v-879q0 -371 255 -371t255 371v879h225v-879q0 -581 -480 -601q-480 20 -480 601z" />
<glyph unicode="v" horiz-adv-x="1590" d="M200 1479h250l345 -900l345 900h250l-595 -1479z" />
<glyph unicode="w" horiz-adv-x="1880" d="M200 1480h216l263 -824l261 824l261 -824l263 824h216l-479 -1480l-261 838l-261 -838z" />
<glyph unicode="x" horiz-adv-x="1516" d="M200 0l414 768l-414 712h256l302 -488l302 488h256l-414 -712l414 -768h-256l-302 512l-302 -512h-256z" />
<glyph unicode="y" horiz-adv-x="1429" d="M200 1479h237l278 -716l277 716h237l-386 -979v-500h-257v500z" />
<glyph unicode="z" horiz-adv-x="1365" d="M200 0l579 1254h-547l32 225h869l-579 -1254h611l-32 -225h-933z" />
<glyph unicode="{" horiz-adv-x="912" d="M200 511v104q160 104 160 236v413q0 245 256 259h96v-144h-96q-96 0 -96 -121v-472q0 -106 -96 -223q96 -117 96 -243v-162q0 -123 96 -123h96v-143h-96q-256 15 -256 259v124q0 146 -160 236z" />
<glyph unicode="|" horiz-adv-x="592" d="M200 1v1472h192v-1472h-192z" />
<glyph unicode="}" horiz-adv-x="912" d="M200 35h96q96 0 96 122v163q0 126 96 243q-96 117 -96 223v471q0 122 -96 122h-96v144h96q256 -15 256 -259v-413q0 -132 160 -236v-104q-160 -90 -160 -236v-125q0 -244 -256 -259h-96v144z" />
<glyph unicode="~" horiz-adv-x="1399" d="M200 1390q122 132 227.5 139.5t329.5 -72t324 79.5l118 -125q-122 -132 -227.5 -139.5t-329.5 72t-324 -79.5z" />
<glyph unicode="&#xa9;" horiz-adv-x="1512" d="M200 1076q0 112 43.5 212.5t119.5 174t176.5 116t216.5 42.5t216.5 -42.5t176.5 -116t119.5 -174t43.5 -212.5q0 -113 -43.5 -212t-119.5 -172.5t-176.5 -116.5t-216.5 -43t-216.5 43t-176.5 116.5t-119.5 172.5t-43.5 212zM283 1076q0 -98 37 -184t101 -149.5 t150.5 -100t185.5 -36.5q97 0 183.5 36.5t150 100t100.5 149.5t37 184t-37 184t-100.5 149.5t-150 99.5t-183.5 36q-99 0 -185.5 -36t-150.5 -99.5t-101 -149.5t-37 -184zM423 1081q0 53 13.5 101.5t38 90t60.5 77t78.5 59.5t92 38t102.5 14q11 0 20.5 -1t22.5 -3v-107 q-25 -1 -43 -1q-37 0 -71 -10t-64 -27.5t-54.5 -41.5t-42 -54t-27 -64t-9.5 -71q-1 -55 20.5 -104t57.5 -85t85 -57.5t105 -20.5q10 0 19.5 1t23.5 4v-115h-27q-4 0 -8 -0.5t-8 -0.5q-80 1 -150 30t-122.5 80.5t-82.5 120.5t-30 147z" />
<glyph unicode="&#xad;" horiz-adv-x="848" d="M200 506v224h448v-224h-448z" />
<glyph unicode="&#xae;" horiz-adv-x="1512" d="M200 1076q0 112 43.5 212.5t119.5 174t176.5 116t216.5 42.5t216.5 -42.5t176.5 -116t119.5 -174t43.5 -212.5q0 -113 -43.5 -212t-119.5 -172.5t-176.5 -116.5t-216.5 -43t-216.5 43t-176.5 116.5t-119.5 172.5t-43.5 212zM283 1076q0 -98 37 -184t101 -149.5 t150.5 -100t185.5 -36.5q97 0 183.5 36.5t150 100t100.5 149.5t37 184t-37 184t-100.5 149.5t-150 99.5t-183.5 36q-99 0 -185.5 -36t-150.5 -99.5t-101 -149.5t-37 -184zM599 717v739h161q209 -52 209 -239q0 -155 -141 -248l167 -252h-138l-146 225v-225h-112zM711 1056 h16q130 23 130 153q0 135 -146 150v-303z" />
<glyph unicode="&#x2000;" horiz-adv-x="850" />
<glyph unicode="&#x2001;" horiz-adv-x="1700" />
<glyph unicode="&#x2002;" horiz-adv-x="850" />
<glyph unicode="&#x2003;" horiz-adv-x="1700" />
<glyph unicode="&#x2004;" horiz-adv-x="566" />
<glyph unicode="&#x2005;" horiz-adv-x="425" />
<glyph unicode="&#x2006;" horiz-adv-x="283" />
<glyph unicode="&#x2007;" horiz-adv-x="283" />
<glyph unicode="&#x2008;" horiz-adv-x="212" />
<glyph unicode="&#x2009;" horiz-adv-x="340" />
<glyph unicode="&#x200a;" horiz-adv-x="94" />
<glyph unicode="&#x2010;" horiz-adv-x="848" d="M200 506v224h448v-224h-448z" />
<glyph unicode="&#x2011;" horiz-adv-x="848" d="M200 506v224h448v-224h-448z" />
<glyph unicode="&#x2012;" horiz-adv-x="848" d="M200 506v224h448v-224h-448z" />
<glyph unicode="&#x2013;" horiz-adv-x="1424" d="M200 506v224h1024v-224h-1024z" />
<glyph unicode="&#x2014;" horiz-adv-x="2448" d="M200 506v224h2048v-224h-2048z" />
<glyph unicode="&#x2019;" horiz-adv-x="646" d="M185 1038v37l147 625h258v-37l-258 -625h-147z" />
<glyph unicode="&#x201c;" horiz-adv-x="1437" d="M200 1038v37l147 625h258v-37l-258 -625h-147zM832 1038v37l147 625h258v-37l-258 -625h-147z" />
<glyph unicode="&#x201d;" horiz-adv-x="1437" d="M200 1038v37l147 625h258v-37l-258 -625h-147zM832 1038v37l147 625h258v-37l-258 -625h-147z" />
<glyph unicode="&#x202f;" horiz-adv-x="340" />
<glyph unicode="&#x205f;" horiz-adv-x="425" />
<glyph unicode="&#x2122;" horiz-adv-x="1789" d="M200 1375v105h524v-105h-201v-699h-122v699h-201zM733 673l153 807l275 -541l275 541l153 -807h-122l-80 459l-226 -459l-225 459l-81 -459h-122z" />
<glyph unicode="&#x25fc;" horiz-adv-x="1480" d="M0 0v1480h1480v-1480h-1480z" />
</font>
</defs>
</svg>
